<?xml version="1.0" standalone="no"?>
<!DOCTYPE svg PUBLIC "-//W3C//DTD SVG 1.1//EN" "http://www.w3.org/Graphics/SVG/1.1/DTD/svg11.dtd" >
<svg xmlns="http://www.w3.org/2000/svg" xmlns:xlink="http://www.w3.org/1999/xlink" version="1.1">
<metadata>
Created by FontForge 20190801 at Tue Nov  2 19:15:39 2004
 By www-data
(C)1998 Yuji Adachi
</metadata>
<defs>
<font id="Bangalor" horiz-adv-x="798" >
  <font-face 
    font-family="Bangalor"
    font-weight="400"
    font-stretch="normal"
    units-per-em="1064"
    panose-1="0 0 4 0 0 0 0 0 0 0"
    ascent="798"
    descent="-266"
    x-height="530"
    cap-height="798"
    bbox="0 -266 1197 798"
    underline-thickness="20"
    underline-position="-143"
    unicode-range="U+0020-201D"
  />
<missing-glyph horiz-adv-x="532" 
 />
    <glyph glyph-name=".notdef" horiz-adv-x="532" 
 />
    <glyph glyph-name=".null" horiz-adv-x="0" 
 />
    <glyph glyph-name="glyph2" horiz-adv-x="532" 
 />
    <glyph glyph-name="space" unicode=" " horiz-adv-x="532" 
 />
    <glyph glyph-name="exclam" unicode="!" horiz-adv-x="665" 
d="M133 798h266v-534h-266v534zM133 131h266v-131h-266v131z" />
    <glyph glyph-name="quotedbl" unicode="&#x22;" 
d="M133 798h133v-268h-133v268zM399 798h133v-268h-133v268z" />
    <glyph glyph-name="numbersign" unicode="#" 
d="M0 530h133v135h133v-135h133v135h133v-135h133v-133h-133v-133h133v-133h-133v-131h-133v131h-133v-131h-133v131h-133v133h133v133h-133v133zM266 397v-133h133v133h-133z" />
    <glyph glyph-name="dollar" unicode="$" 
d="M266 798h133v-133h133v-135h-266v-133h266v-133h133v-133h-133v-131h-133v-135h-133v135h-133v131h266v133h-266v133h-133v133h133v135h133v133z" />
    <glyph glyph-name="percent" unicode="%" 
d="M133 530h133v135h-133v-135zM399 131h-266v-131h-133v131h133v133h133v133h-133v133h-133v135h133v133h133v-133h266v133h133v-133h-133v-135h-133v-133h133v-133h133v-133h-133v-131h-133v131zM399 264v-133h133v133h-133z" />
    <glyph glyph-name="ampersand" unicode="&#x26;" 
d="M532 798v-133h-266v-135h399v-399h-133v-131h-399v131h-133v266h133v133h-133v135h133v133h399zM266 397v-266h133v266h-133z" />
    <glyph glyph-name="quotesingle" unicode="'" horiz-adv-x="532" 
d="M133 798h133v-268h-133v268z" />
    <glyph glyph-name="parenleft" unicode="(" horiz-adv-x="665" 
d="M532 798v-133h-133v-665h133v-135h-266v135h-133v665h133v133h266z" />
    <glyph glyph-name="parenright" unicode=")" 
d="M133 798h266v-133h133v-665h-133v-135h-266v135h133v665h-133v133z" />
    <glyph glyph-name="asterisk" unicode="*" 
d="M133 665h133v-135h133v135h133v-135h-133v-133h133v-133h-133v133h-133v-133h-133v133h133v133h-133v135z" />
    <glyph glyph-name="plus" unicode="+" 
d="M133 397h133v133h133v-133h133v-133h-133v-133h-133v133h-133v133z" />
    <glyph glyph-name="comma" unicode="," horiz-adv-x="665" 
d="M133 264h266v-399h-133v-131h-133v131h133v135h-133v264z" />
    <glyph glyph-name="hyphenminus" unicode="-" 
d="M133 397h399v-133h-399v133z" />
    <glyph glyph-name="period" unicode="." horiz-adv-x="665" 
d="M133 264h266v-264h-266v264z" />
    <glyph glyph-name="slash" unicode="/" 
d="M399 798h133v-268h-133v-266h-133v-264h-133v264h133v266h133v268z" />
    <glyph glyph-name="zero" unicode="0" 
d="M0 397h133v133h399v-133h133v-266h-133v-131h-399v131h-133v266zM266 397v-266h133v266h-133z" />
    <glyph glyph-name="one" unicode="1" horiz-adv-x="665" 
d="M0 397h133v133h266v-399h133v-131h-532v131h133v133h-133v133z" />
    <glyph glyph-name="two" unicode="2" 
d="M266 264h133v133h-133v-133zM0 397h133v133h399v-133h133v-133h-133v-133h133v-131h-665v131h266v133h-266v133z" />
    <glyph glyph-name="three" unicode="3" 
d="M266 264h133v133h-133v-133zM0 397h133v133h399v-133h133v-133h-133v-133h133v-266h-133v-131h-399v131h-133v135h266v-135h133v266h-133v133h-266v133z" />
    <glyph glyph-name="four" unicode="4" 
d="M133 264v133h133v133h266v-530h133v-135h-133v-131h-266v131h-266v399h133zM133 0h133v264h-133v-264z" />
    <glyph glyph-name="five" unicode="5" 
d="M0 530h665v-133h-399v-133h266v-133h133v-266h-133v-131h-399v131h-133v135h266v-135h133v266h-399v399z" />
    <glyph glyph-name="six" unicode="6" 
d="M532 798v-133h-266v-135h266v-133h133v-266h-133v-131h-399v131h-133v534h133v133h399zM266 397v-266h133v266h-133z" />
    <glyph glyph-name="seven" unicode="7" 
d="M0 530h665v-399h-133v-131h-133v-266h-266v266h133v131h133v266h-133v-133h-266v266z" />
    <glyph glyph-name="eight" unicode="8" 
d="M133 798h399v-133h133v-135h-133v-133h133v-266h-133v-131h-399v131h-133v266h133v133h-133v135h133v133zM266 665v-135h133v135h-133zM266 397v-266h133v266h-133z" />
    <glyph glyph-name="nine" unicode="9" 
d="M133 530h399v-133h133v-532h-133v-131h-399v131h266v135h-266v131h-133v266h133v133zM266 397v-266h133v266h-133z" />
    <glyph glyph-name="colon" unicode=":" horiz-adv-x="665" 
d="M133 665h266v-268h-266v268zM133 264h266v-264h-266v264z" />
    <glyph glyph-name="semicolon" unicode=";" horiz-adv-x="665" 
d="M133 665h266v-268h-266v268zM133 264h266v-399h-133v-131h-133v131h133v135h-133v264z" />
    <glyph glyph-name="less" unicode="&#x3c;" 
d="M665 665v-135h-133v-133h-133v-133h133v-133h133v-131h-266v131h-133v133h-133v133h133v133h133v135h266z" />
    <glyph glyph-name="equal" unicode="=" 
d="M133 530h399v-133h-399v133zM133 264h399v-133h-399v133z" />
    <glyph glyph-name="greater" unicode="&#x3e;" 
d="M133 665h266v-135h133v-133h133v-133h-133v-133h-133v-131h-266v131h133v133h133v133h-133v133h-133v135z" />
    <glyph glyph-name="question" unicode="?" 
d="M0 798h532v-133h133v-135h-133v-133h-133v-133h-266v133h133v133h133v135h-399v133zM133 131h266v-131h-266v131z" />
    <glyph glyph-name="at" unicode="@" 
d="M532 131v-131h-399v131h-133v534h133v133h399v-133h133v-401h-399v266h133v-133h133v268h-399v-534h399z" />
    <glyph glyph-name="A" unicode="A" 
d="M133 798h399v-133h133v-665h-266v264h-133v-264h-266v665h133v133zM266 397h133v268h-133v-268z" />
    <glyph glyph-name="B" unicode="B" 
d="M0 798h532v-133h133v-135h-133v-133h133v-266h-133v-131h-532v798zM266 665v-135h133v135h-133zM266 397v-266h133v266h-133z" />
    <glyph glyph-name="C" unicode="C" 
d="M133 798h532v-268h-266v135h-133v-534h399v-131h-532v131h-133v534h133v133z" />
    <glyph glyph-name="D" unicode="D" 
d="M0 798h532v-133h133v-534h-133v-131h-532v798zM266 665v-534h133v534h-133z" />
    <glyph glyph-name="E" unicode="E" 
d="M665 798v-133h-399v-135h266v-133h-266v-266h399v-131h-532v131h-133v266h133v133h-133v135h133v133h532z" />
    <glyph glyph-name="F" unicode="F" 
d="M0 665h133v133h532v-133h-266v-268h266v-133h-266v-133h-133v-131h-266v131h133v133h-133v133h133v133h-133v135z" />
    <glyph glyph-name="G" unicode="G" 
d="M665 530h-266v135h-133v-534h133v266h266v-532h-133v-131h-266v131h133v135h-266v131h-133v534h133v133h532v-268z" />
    <glyph glyph-name="H" unicode="H" 
d="M0 798h266v-268h133v268h266v-798h-266v397h-133v-397h-266v798z" />
    <glyph glyph-name="I" unicode="I" horiz-adv-x="665" 
d="M0 798h532v-133h-133v-534h133v-131h-532v131h133v534h-133v133z" />
    <glyph glyph-name="J" unicode="J" horiz-adv-x="532" 
d="M0 798h399v-933h-133v-131h-266v131h133v800h-133v133z" />
    <glyph glyph-name="K" unicode="K" 
d="M0 798h266v-268h133v268h266v-268h-133v-133h133v-397h-266v397h-133v-397h-266v798z" />
    <glyph glyph-name="L" unicode="L" 
d="M0 798h266v-667h399v-131h-665v798z" />
    <glyph glyph-name="M" unicode="M" horiz-adv-x="1064" 
d="M0 0v798h266v-133h133v-135h133v135h133v133h266v-798h-266v530h-133v-133h-133v133h-133v-530h-266z" />
    <glyph glyph-name="N" unicode="N" 
d="M0 798h133v-133h133v-135h133v268h266v-798h-266v397h-133v-397h-266v798z" />
    <glyph glyph-name="O" unicode="O" 
d="M0 665h133v133h399v-133h133v-534h-133v-131h-399v131h-133v534zM266 665v-534h133v534h-133z" />
    <glyph glyph-name="P" unicode="P" 
d="M0 798h532v-133h133v-268h-133v-133h-266v-264h-266v798zM266 665v-268h133v268h-133z" />
    <glyph glyph-name="Q" unicode="Q" 
d="M0 665h133v133h399v-133h133v-534h-133v-131h133v-135h-266v135h-266v131h-133v534zM266 665v-534h133v534h-133z" />
    <glyph glyph-name="R" unicode="R" 
d="M0 798h532v-133h133v-268h-133v-133h133v-264h-266v264h-133v-264h-266v798zM266 665v-268h133v268h-133z" />
    <glyph glyph-name="S" unicode="S" 
d="M266 264v-133h133v133h-133zM399 530v135h-133v-135h133zM133 798h532v-268h-266v-133h133v-133h133v-133h-133v-131h-532v264h266v133h-133v133h-133v135h133v133z" />
    <glyph glyph-name="T" unicode="T" horiz-adv-x="665" 
d="M0 798h532v-133h-133v-665h-266v665h-133v133z" />
    <glyph glyph-name="U" unicode="U" 
d="M0 798h266v-667h133v667h266v-667h-133v-131h-399v131h-133v667z" />
    <glyph glyph-name="V" unicode="V" 
d="M0 798h266v-667h133v667h266v-534h-133v-133h-133v-131h-399v798z" />
    <glyph glyph-name="W" unicode="W" horiz-adv-x="1064" 
d="M0 798h266v-667h133v268h133v-268h133v667h266v-667h-133v-131h-665v131h-133v667z" />
    <glyph glyph-name="X" unicode="X" 
d="M0 798h266v-268h133v268h266v-268h-133v-133h133v-397h-266v397h-133v-397h-266v397h133v133h-133v268z" />
    <glyph glyph-name="Y" unicode="Y" 
d="M0 798h266v-667h133v667h266v-933h-133v-131h-266v131h133v135h-266v131h-133v667z" />
    <glyph glyph-name="Z" unicode="Z" 
d="M0 798h665v-268h-133v-133h-133v-133h-133v-133h399v-131h-665v264h133v133h133v133h133v135h-399v133z" />
    <glyph glyph-name="bracketleft" unicode="[" 
d="M532 798v-133h-133v-665h133v-135h-399v933h399z" />
    <glyph glyph-name="backslash" unicode="\" horiz-adv-x="665" 
d="M133 798h133v-268h133v-266h133v-264h-133v264h-133v266h-133v268z" />
    <glyph glyph-name="bracketright" unicode="]" 
d="M133 798h399v-933h-399v135h133v665h-133v133z" />
    <glyph glyph-name="asciicircum" unicode="^" 
d="M133 665h133v133h133v-133h133v-135h-133v135h-133v-135h-133v135z" />
    <glyph glyph-name="underscore" unicode="_" 
d="M0 131h798v-131h-798v131z" />
    <glyph glyph-name="grave" unicode="`" 
d="M133 798h266v-133h133v-135h-266v135h-133v133z" />
    <glyph glyph-name="a" unicode="a" 
d="M133 530h532v-399h133v-131h-665v131h-133v266h133v133zM266 397v-266h133v266h-133z" />
    <glyph glyph-name="b" unicode="b" 
d="M0 798h266v-268h532v-133h-133v-266h-133v-131h-399v131h-133v667zM266 397v-266h133v266h-133z" />
    <glyph glyph-name="c" unicode="c" 
d="M0 397h133v133h532v-266h-266v133h-133v-266h532v-131h-665v131h-133v266z" />
    <glyph glyph-name="d" unicode="d" 
d="M0 397h133v133h266v268h266v-667h133v-131h-665v131h-133v266zM266 397v-266h133v266h-133zM587 264z" />
    <glyph glyph-name="e" unicode="e" 
d="M0 397h133v133h532v-266h-133v-133h266v-131h-665v131h-133v266zM266 397v-133h133v133h-133z" />
    <glyph glyph-name="f" unicode="f" 
d="M532 -135v-131h-266v131h-133v532h-133v133h133v135h133v133h266v-133h-133v-135h399v-133h-266v-133h133v-399h-133zM399 264v-399h133v399h-133z" />
    <glyph glyph-name="g" unicode="g" 
d="M266 397v-266h133v266h-133zM266 -135h-133v266h-133v266h133v133h532v-399h133v-131h-133v-135h-133v-131h-266v131zM266 0v-135h133v135h-133z" />
    <glyph glyph-name="h" unicode="h" 
d="M0 798h266v-401h133v133h266v-399h133v-131h-399v264h-133v-264h-266v798z" />
    <glyph glyph-name="i" unicode="i" horiz-adv-x="399" 
d="M0 798h266v-133h-266v133zM0 530h266v-399h133v-131h-266v131h-133v399z" />
    <glyph glyph-name="j" unicode="j" horiz-adv-x="665" 
d="M266 798h266v-133h-266v133zM133 0v131h133v399h266v-399h133v-131h-133v-135h-133v-131h-266v131h-133v135h133zM266 0h-133v-135h133v135z" />
    <glyph glyph-name="k" unicode="k" 
d="M0 798h266v-401h133v133h266v-133h-133v-266h266v-131h-399v131h-133v-131h-266v798z" />
    <glyph glyph-name="l" unicode="l" horiz-adv-x="399" 
d="M0 798h266v-667h133v-131h-266v131h-133v667z" />
    <glyph glyph-name="m" unicode="m" horiz-adv-x="1197" 
d="M0 530h266v-133h133v133h266v-133h133v133h266v-399h133v-133h-399v266h-133v-264h-266v264h-133v-264h-266v530z" />
    <glyph glyph-name="n" unicode="n" 
d="M0 530h266v-133h133v133h266v-399h133v-131h-399v264h-133v-264h-266v530z" />
    <glyph glyph-name="o" unicode="o" 
d="M133 530h665v-133h-133v-266h-133v-131h-399v131h-133v266h133v133zM266 397v-266h133v266h-133z" />
    <glyph glyph-name="p" unicode="p" 
d="M0 530h266v-133h133v133h266v-399h133v-131h-532v-266h-266v796zM266 264v-133h133v133h-133z" />
    <glyph glyph-name="q" unicode="q" 
d="M0 397h133v133h532v-399h133v-131h-133v-266h-266v266h-266v131h-133v266zM266 397v-266h133v266h-133z" />
    <glyph glyph-name="r" unicode="r" 
d="M0 530h665v-399h133v-131h-399v397h-133v-266h-133v-131h-133v131h133v266h-133v133z" />
    <glyph glyph-name="s" unicode="s" 
d="M266 264v-133h133v133h-133zM0 0v131h133v133h133v266h266v-133h133v-266h133v-131h-532v131h-133v-131h-133z" />
    <glyph glyph-name="t" unicode="t" horiz-adv-x="665" 
d="M0 530h133v135h266v-135h133v-133h-133v-266h266v-131h-399v131h-133v266h-133v133z" />
    <glyph glyph-name="u" unicode="u" 
d="M0 530h266v-399h133v399h266v-399h133v-131h-665v131h-133v399z" />
    <glyph glyph-name="Vv" unicode="v" 
d="M0 530h266v-399h133v399h399v-133h-133v-266h-133v-131h-532v530z" />
    <glyph glyph-name="w" unicode="w" horiz-adv-x="1197" 
d="M0 530h266v-399h133v399h266v-399h133v399h399v-133h-133v-266h-133v-131h-798v131h-133v399z" />
    <glyph glyph-name="x" unicode="x" 
d="M0 530h399v-133h133v133h133v-133h-133v-266h266v-131h-399v131h-133v-131h-133v131h133v266h-266v133z" />
    <glyph glyph-name="y" unicode="y" 
d="M266 -135h-133v266h-133v399h266v-399h133v399h266v-399h133v-131h-133v-135h-133v-131h-266v131zM266 0v-135h133v135h-133z" />
    <glyph glyph-name="z" unicode="z" 
d="M0 530h665v-266h-266v-133h399v-131h-665v264h266v133h-399v133z" />
    <glyph glyph-name="braceleft" unicode="{" 
d="M665 798v-133h-133v-268h-133v-133h133v-264h133v-135h-266v135h-133v264h-133v133h133v268h133v133h266z" />
    <glyph glyph-name="bar" unicode="|" horiz-adv-x="532" 
d="M133 798h133v-1064h-133v1064z" />
    <glyph glyph-name="braceright" unicode="}" 
d="M133 798h266v-133h133v-268h133v-133h-133v-264h-133v-135h-266v135h133v264h133v133h-133v268h-133v133z" />
    <glyph glyph-name="asciitilde" unicode="~" 
d="M133 530v135h133v133h133v-133h133v133h133v-133h-133v-135h-133v135h-133v-135h-133z" />
    <glyph glyph-name="nonbreakingspace" unicode="&#xa0;" horiz-adv-x="500" 
 />
    <glyph glyph-name="hyphen" unicode="&#x2010;" 
d="M133 397h399v-133h-399v133z" />
    <glyph glyph-name="quoteleft" unicode="&#x2018;" horiz-adv-x="665" 
d="M266 798h133v-133h-133v-135h133v-266h-266v401h133v133z" />
    <glyph glyph-name="quoteright" unicode="&#x2019;" horiz-adv-x="665" 
d="M133 798h266v-401h-133v-133h-133v133h133v133h-133v268z" />
    <glyph glyph-name="quotedblleft" unicode="&#x201c;" 
d="M133 798h133v-133h-133v-135h133v-266h-266v401h133v133zM532 798h133v-133h-133v-135h133v-266h-266v401h133v133z" />
    <glyph glyph-name="quotedblright" unicode="&#x201d;" 
d="M0 798h266v-401h-133v-133h-133v133h133v133h-133v268zM399 798h266v-401h-133v-133h-133v133h133v133h-133v268z" />
    <glyph glyph-name="v" horiz-adv-x="1064" 
 />
    <glyph glyph-name="glyph105" horiz-adv-x="1064" 
 />
    <glyph glyph-name="glyph106" horiz-adv-x="1064" 
 />
    <glyph glyph-name="HT" horiz-adv-x="1064" 
 />
    <glyph glyph-name="nonmarkingreturn" horiz-adv-x="1064" 
 />
    <glyph glyph-name="glyph109" horiz-adv-x="1064" 
 />
  </font>
</defs>
</svg>
